<svg width="15" height="41" viewBox="0 0 15 41" fill="none" xmlns="http://www.w3.org/2000/svg">
<path d="M12.775 21.3551C12.9238 21.5039 12.9982 21.675 12.9982 21.8684C12.9982 22.0619 12.9238 22.233 12.775 22.3818L2.37321 32.7836C2.2244 32.9324 2.05327 33.0068 1.85982 33.0068C1.66637 33.0068 1.49524 32.9324 1.34643 32.7836L0.230355 31.6676C0.0815459 31.5187 0.00714111 31.3476 0.00714111 31.1542C0.00714111 30.9607 0.0815459 30.7896 0.230355 30.6408L9.00268 21.8684L0.230355 13.0961C0.0815459 12.9473 0.00714111 12.7762 0.00714111 12.5827C0.00714111 12.3893 0.0815459 12.2181 0.230355 12.0693L1.34643 10.9533C1.49524 10.8045 1.66637 10.73 1.85982 10.73C2.05327 10.73 2.2244 10.8045 2.37321 10.9533L12.775 21.3551Z" fill="black"/>
</svg>
