<svg width="28" height="30" viewBox="0 0 28 30" fill="none" xmlns="http://www.w3.org/2000/svg">
<g clip-path="url(#clip0_2_298)">
<path d="M2.20438 27.8571H7.02581V23.0357H2.20438V27.8571ZM8.09724 27.8571H13.4544V23.0357H8.09724V27.8571ZM2.20438 21.9643H7.02581V16.6071H2.20438V21.9643ZM8.09724 21.9643H13.4544V16.6071H8.09724V21.9643ZM2.20438 15.5357H7.02581V10.7143H2.20438V15.5357ZM14.5258 27.8571H19.883V23.0357H14.5258V27.8571ZM8.09724 15.5357H13.4544V10.7143H8.09724V15.5357ZM20.9544 27.8571H25.7758V23.0357H20.9544V27.8571ZM14.5258 21.9643H19.883V16.6071H14.5258V21.9643ZM8.63295 7.5V2.67857C8.63295 2.53348 8.57994 2.40792 8.47391 2.3019C8.36788 2.19587 8.24233 2.14286 8.09724 2.14286H7.02581C6.88072 2.14286 6.75516 2.19587 6.64913 2.3019C6.54311 2.40792 6.49009 2.53348 6.49009 2.67857V7.5C6.49009 7.64509 6.54311 7.77065 6.64913 7.87667C6.75516 7.9827 6.88072 8.03572 7.02581 8.03572H8.09724C8.24233 8.03572 8.36788 7.9827 8.47391 7.87667C8.57994 7.77065 8.63295 7.64509 8.63295 7.5ZM20.9544 21.9643H25.7758V16.6071H20.9544V21.9643ZM14.5258 15.5357H19.883V10.7143H14.5258V15.5357ZM20.9544 15.5357H25.7758V10.7143H20.9544V15.5357ZM21.4901 7.5V2.67857C21.4901 2.53348 21.4371 2.40792 21.3311 2.3019C21.225 2.19587 21.0995 2.14286 20.9544 2.14286H19.883C19.7379 2.14286 19.6123 2.19587 19.5063 2.3019C19.4003 2.40792 19.3472 2.53348 19.3472 2.67857V7.5C19.3472 7.64509 19.4003 7.77065 19.5063 7.87667C19.6123 7.9827 19.7379 8.03572 19.883 8.03572H20.9544C21.0995 8.03572 21.225 7.9827 21.3311 7.87667C21.4371 7.77065 21.4901 7.64509 21.4901 7.5ZM27.9187 6.42857V27.8571C27.9187 28.4375 27.7066 28.9397 27.2825 29.3638C26.8584 29.7879 26.3562 30 25.7758 30H2.20438C1.62402 30 1.12179 29.7879 0.697684 29.3638C0.273577 28.9397 0.0615234 28.4375 0.0615234 27.8571V6.42857C0.0615234 5.84822 0.273577 5.34598 0.697684 4.92188C1.12179 4.49777 1.62402 4.28572 2.20438 4.28572H4.34724V2.67857C4.34724 1.94197 4.60951 1.31138 5.13407 0.786831C5.65862 0.262278 6.2892 0 7.02581 0H8.09724C8.83384 0 9.46443 0.262278 9.98898 0.786831C10.5135 1.31138 10.7758 1.94197 10.7758 2.67857V4.28572H17.2044V2.67857C17.2044 1.94197 17.4667 1.31138 17.9912 0.786831C18.5158 0.262278 19.1463 0 19.883 0H20.9544C21.691 0 22.3216 0.262278 22.8461 0.786831C23.3707 1.31138 23.633 1.94197 23.633 2.67857V4.28572H25.7758C26.3562 4.28572 26.8584 4.49777 27.2825 4.92188C27.7066 5.34598 27.9187 5.84822 27.9187 6.42857Z" fill="#E85AAA"/>
</g>
<defs>
<clipPath id="clip0_2_298">
<rect width="27.86" height="30" fill="white" transform="matrix(1 0 0 -1 0.0600586 30)"/>
</clipPath>
</defs>
</svg>
