<svg width="33" height="30" viewBox="0 0 33 30" fill="none" xmlns="http://www.w3.org/2000/svg">
<path d="M9.58444 23.4208L8.74738 24.2578C8.63578 24.3694 8.50743 24.4252 8.36234 24.4252C8.21725 24.4252 8.0889 24.3694 7.97729 24.2578L0.175956 16.4565C0.0643485 16.3449 0.00854492 16.2165 0.00854492 16.0714C0.00854492 15.9263 0.0643485 15.798 0.175956 15.6864L7.97729 7.88505C8.0889 7.77344 8.21725 7.71764 8.36234 7.71764C8.50743 7.71764 8.63578 7.77344 8.74738 7.88505L9.58444 8.7221C9.69604 8.83371 9.75185 8.96206 9.75185 9.10715C9.75185 9.25224 9.69604 9.38058 9.58444 9.49219L3.0052 16.0714L9.58444 22.6507C9.69604 22.7623 9.75185 22.8906 9.75185 23.0357C9.75185 23.1808 9.69604 23.3092 9.58444 23.4208ZM19.4784 5.55804L13.234 27.1708C13.1893 27.3159 13.1029 27.4247 12.9745 27.4972C12.8462 27.5698 12.715 27.5837 12.5811 27.5391L11.5431 27.2545C11.3981 27.2098 11.2892 27.1233 11.2167 26.995C11.1441 26.8666 11.1302 26.7299 11.1748 26.5848L17.4193 4.9721C17.4639 4.82701 17.5504 4.71819 17.6787 4.64565C17.8071 4.57311 17.9382 4.55915 18.0722 4.6038L19.1101 4.8884C19.2552 4.93304 19.364 5.01954 19.4366 5.14788C19.5091 5.27623 19.5231 5.41295 19.4784 5.55804ZM30.4773 16.4565L22.676 24.2578C22.5643 24.3694 22.436 24.4252 22.2909 24.4252C22.1458 24.4252 22.0175 24.3694 21.9059 24.2578L21.0688 23.4208C20.9572 23.3092 20.9014 23.1808 20.9014 23.0357C20.9014 22.8906 20.9572 22.7623 21.0688 22.6507L27.6481 16.0714L21.0688 9.49219C20.9572 9.38058 20.9014 9.25224 20.9014 9.10715C20.9014 8.96206 20.9572 8.83371 21.0688 8.7221L21.9059 7.88505C22.0175 7.77344 22.1458 7.71764 22.2909 7.71764C22.436 7.71764 22.5643 7.77344 22.676 7.88505L30.4773 15.6864C30.5889 15.798 30.6447 15.9263 30.6447 16.0714C30.6447 16.2165 30.5889 16.3449 30.4773 16.4565Z" fill="#ED7256"/>
</svg>
