<svg width="39" height="30" viewBox="0 0 39 30" fill="none" xmlns="http://www.w3.org/2000/svg">
<g clip-path="url(#clip0_2_83)">
<path d="M38.5757 12.8571H36.4328V23.5714H38.5757V30H32.1471V27.8571H17.1471V30H10.7186V23.5714H12.8614V21.4286H6.43284V23.5714H0.00427246V17.1429H2.14713V6.42857H0.00427246V0H6.43284V2.14286H21.4328V0H27.8614V6.42857H25.7186V8.57143H32.1471V6.42857H38.5757V12.8571ZM34.29 8.57143V10.7143H36.4328V8.57143H34.29ZM23.5757 2.14286V4.28572H25.7186V2.14286H23.5757ZM2.14713 2.14286V4.28572H4.28999V2.14286H2.14713ZM4.28999 21.4286V19.2857H2.14713V21.4286H4.28999ZM25.7186 19.2857H23.5757V21.4286H25.7186V19.2857ZM6.43284 19.2857H21.4328V17.1429H23.5757V6.42857H21.4328V4.28572H6.43284V6.42857H4.28999V17.1429H6.43284V19.2857ZM15.0043 27.8571V25.7143H12.8614V27.8571H15.0043ZM36.4328 27.8571V25.7143H34.29V27.8571H36.4328ZM34.29 23.5714V12.8571H32.1471V10.7143H25.7186V17.1429H27.8614V23.5714H21.4328V21.4286H15.0043V23.5714H17.1471V25.7143H32.1471V23.5714H34.29Z" fill="#2796E2"/>
</g>
<defs>
<clipPath id="clip0_2_83">
<rect width="38.58" height="30" fill="white" transform="matrix(1 0 0 -1 0 30)"/>
</clipPath>
</defs>
</svg>
