<svg width="26" height="30" viewBox="0 0 26 30" fill="none" xmlns="http://www.w3.org/2000/svg">
<g clip-path="url(#clip0_2_312)">
<path d="M17.2857 8.57143V0.669643C17.5313 0.825893 17.7322 0.982143 17.8884 1.13839L24.7188 7.96875C24.875 8.125 25.0313 8.32589 25.1875 8.57143H17.2857ZM15.1429 9.10714C15.1429 9.55357 15.2991 9.93304 15.6116 10.2455C15.9241 10.558 16.3036 10.7143 16.75 10.7143H25.8572V28.3929C25.8572 28.8393 25.7009 29.2188 25.3884 29.5312C25.0759 29.8438 24.6965 30 24.25 30H1.75003C1.3036 30 0.924133 29.8438 0.611633 29.5312C0.299133 29.2188 0.142883 28.8393 0.142883 28.3929V1.60714C0.142883 1.16072 0.299133 0.78125 0.611633 0.46875C0.924133 0.156252 1.3036 0 1.75003 0H15.1429V9.10714Z" fill="#E85AAA"/>
</g>
<defs>
<clipPath id="clip0_2_312">
<rect width="25.72" height="30" fill="white" transform="matrix(1 0 0 -1 0.140015 30)"/>
</clipPath>
</defs>
</svg>
