<svg width="26" height="30" viewBox="0 0 26 30" fill="none" xmlns="http://www.w3.org/2000/svg">
<g clip-path="url(#clip0_2_69)">
<path d="M15.8901 11.9699C15.8901 11.9699 16.0994 12.1792 16.5179 12.5977C16.9365 13.0162 17.1457 13.817 17.1457 15C17.1457 16.1831 16.7272 17.1931 15.8901 18.0302C15.0531 18.8672 14.043 19.2857 12.86 19.2857C11.677 19.2857 10.6669 18.8672 9.82988 18.0302C8.99282 17.1931 8.5743 16.1831 8.5743 15C8.5743 13.817 8.99282 12.807 9.82988 11.9699C10.6669 11.1328 11.677 10.7143 12.86 10.7143C14.043 10.7143 15.0531 11.1328 15.8901 11.9699ZM17.4052 19.5452C17.4052 19.5452 17.7191 19.2313 18.3469 18.6036C18.9747 17.9758 19.2886 16.7746 19.2886 15C19.2886 13.2255 18.6608 11.7104 17.4052 10.4548C16.1496 9.19925 14.6346 8.57146 12.86 8.57146C11.0855 8.57146 9.57039 9.19925 8.31481 10.4548C7.05923 11.7104 6.43144 13.2255 6.43144 15C6.43144 16.7746 7.05923 18.2897 8.31481 19.5452C9.57039 20.8008 11.0855 21.4286 12.86 21.4286C14.6346 21.4286 16.1496 20.8008 17.4052 19.5452ZM18.9203 8.93977C18.9203 8.93977 19.3388 9.35829 20.1759 10.1953C21.0129 11.0324 21.4314 12.634 21.4314 15C21.4314 17.3661 20.5944 19.3862 18.9203 21.0603C17.2462 22.7344 15.2261 23.5715 12.86 23.5715C10.4939 23.5715 8.47385 22.7344 6.79974 21.0603C5.12564 19.3862 4.28858 17.3661 4.28858 15C4.28858 12.634 5.12564 10.6139 6.79974 8.93977C8.47385 7.26566 10.4939 6.42861 12.86 6.42861C15.2261 6.42861 17.2462 7.26566 18.9203 8.93977ZM22.7205 19.1602C22.7205 19.1602 22.8628 18.8296 23.1474 18.1683C23.432 17.507 23.5743 16.4509 23.5743 15C23.5743 13.5491 23.2897 12.1624 22.7205 10.8399C22.1513 9.51733 21.3896 8.37894 20.4353 7.4247C19.4811 6.47046 18.3427 5.70874 17.0202 5.13955C15.6976 4.57035 14.3109 4.28575 12.86 4.28575C11.4091 4.28575 10.0224 4.57035 8.69985 5.13955C7.37731 5.70874 6.23892 6.47046 5.28468 7.4247C4.33044 8.37894 3.56872 9.51733 2.99952 10.8399C2.43032 12.1624 2.14573 13.5491 2.14573 15C2.14573 16.4509 2.43032 17.8376 2.99952 19.1602C3.56872 20.4827 4.33044 21.6211 5.28468 22.5754C6.23892 23.5296 7.37731 24.2913 8.69985 24.8605C10.0224 25.4297 11.4091 25.7143 12.86 25.7143C14.3109 25.7143 15.6976 25.4297 17.0202 24.8605C18.3427 24.2913 19.4811 23.5296 20.4353 22.5754C21.3896 21.6211 22.1513 20.4827 22.7205 19.1602ZM23.9928 8.54635C23.9928 8.54635 24.2802 9.03882 24.855 10.0238C25.4298 11.0087 25.7172 12.6674 25.7172 15C25.7172 17.3326 25.1424 19.4839 23.9928 21.4537C22.8433 23.4236 21.2836 24.9833 19.3137 26.1328C17.3438 27.2824 15.1926 27.8572 12.86 27.8572C10.5274 27.8572 8.37619 27.2824 6.40633 26.1328C4.43646 24.9833 2.87675 23.4236 1.7272 21.4537C0.577645 19.4839 0.00286865 17.3326 0.00286865 15C0.00286865 12.6674 0.577645 10.5162 1.7272 8.54635C2.87675 6.57649 4.43646 5.01678 6.40633 3.86722C8.37619 2.71767 10.5274 2.14289 12.86 2.14289C15.1926 2.14289 17.3438 2.71767 19.3137 3.86722C21.2836 5.01678 22.8433 6.57649 23.9928 8.54635Z" fill="#9774FA"/>
</g>
<defs>
<clipPath id="clip0_2_69">
<rect width="25.72" height="30" fill="white" transform="matrix(1 0 0 -1 0 30)"/>
</clipPath>
</defs>
</svg>
