<svg width="26" height="30" viewBox="0 0 26 30" fill="none" xmlns="http://www.w3.org/2000/svg">
<path d="M25.3215 26.7857C25.4777 26.7857 25.6061 26.8359 25.7065 26.9364C25.8069 27.0368 25.8572 27.1652 25.8572 27.3214V29.4643C25.8572 29.6205 25.8069 29.7489 25.7065 29.8493C25.6061 29.9498 25.4777 30 25.3215 30H0.678598C0.522348 30 0.393999 29.9498 0.293553 29.8493C0.193107 29.7489 0.142883 29.6205 0.142883 29.4643V27.3214C0.142883 27.1652 0.193107 27.0368 0.293553 26.9364C0.393999 26.8359 0.522348 26.7857 0.678598 26.7857H25.3215ZM2.31922 25.7143C2.3527 25.1004 2.44199 24.5033 2.58708 23.923C2.73217 23.3426 2.89958 22.8125 3.08931 22.3326C3.27904 21.8527 3.53574 21.3672 3.8594 20.8761C4.18306 20.385 4.48161 19.9609 4.75505 19.6038C5.02849 19.2467 5.38842 18.8588 5.83485 18.4403C6.28128 18.0218 6.64958 17.6869 6.93976 17.4358C7.22994 17.1847 7.62335 16.8778 8.12 16.5151C8.61666 16.1523 8.98775 15.8873 9.23328 15.7199C9.47882 15.5525 9.84154 15.3125 10.3215 15C9.84154 14.6875 9.47882 14.4475 9.23328 14.2801C8.98775 14.1127 8.61666 13.8477 8.12 13.4849C7.62335 13.1222 7.22994 12.8153 6.93976 12.5642C6.64958 12.3131 6.28128 11.9782 5.83485 11.5597C5.38842 11.1412 5.02849 10.7533 4.75505 10.3962C4.48161 10.0391 4.18306 9.61496 3.8594 9.12388C3.53574 8.63281 3.27904 8.14732 3.08931 7.66741C2.89958 7.1875 2.73217 6.65737 2.58708 6.07701C2.44199 5.49665 2.3527 4.89956 2.31922 4.28572H23.6808C23.6473 4.89956 23.5581 5.49665 23.413 6.07701C23.2679 6.65737 23.1005 7.1875 22.9107 7.66741C22.721 8.14732 22.4643 8.63281 22.1406 9.12388C21.817 9.61496 21.5184 10.0391 21.245 10.3962C20.9716 10.7533 20.6116 11.1412 20.1652 11.5597C19.7188 11.9782 19.3505 12.3131 19.0603 12.5642C18.7701 12.8153 18.3767 13.1222 17.88 13.4849C17.3834 13.8477 17.0123 14.1127 16.7668 14.2801C16.5212 14.4475 16.1585 14.6875 15.6786 15C16.1585 15.3125 16.5212 15.5525 16.7668 15.7199C17.0123 15.8873 17.3834 16.1523 17.88 16.5151C18.3767 16.8778 18.7701 17.1847 19.0603 17.4358C19.3505 17.6869 19.7188 18.0218 20.1652 18.4403C20.6116 18.8588 20.9716 19.2467 21.245 19.6038C21.5184 19.9609 21.817 20.385 22.1406 20.8761C22.4643 21.3672 22.721 21.8527 22.9107 22.3326C23.1005 22.8125 23.2679 23.3426 23.413 23.923C23.5581 24.5033 23.6473 25.1004 23.6808 25.7143H2.31922ZM25.3215 0C25.4777 0 25.6061 0.0502243 25.7065 0.150671C25.8069 0.251118 25.8572 0.379465 25.8572 0.535715V2.67857C25.8572 2.83482 25.8069 2.96317 25.7065 3.06362C25.6061 3.16406 25.4777 3.21429 25.3215 3.21429H0.678598C0.522348 3.21429 0.393999 3.16406 0.293553 3.06362C0.193107 2.96317 0.142883 2.83482 0.142883 2.67857V0.535715C0.142883 0.379465 0.193107 0.251118 0.293553 0.150671C0.393999 0.0502243 0.522348 0 0.678598 0H25.3215Z" fill="#E85AAA"/>
</svg>
