<svg width="16" height="17" viewBox="0 0 16 17" fill="none" xmlns="http://www.w3.org/2000/svg">
<g clip-path="url(#clip0_2_62)">
<path d="M11.9804 12.7917C11.9804 12.7917 12.0086 12.7635 12.0652 12.7069C12.1217 12.6504 12.15 12.5447 12.15 12.39C12.15 12.2352 12.0935 12.1013 11.9804 11.9882C11.8673 11.8751 11.7333 11.8185 11.5786 11.8185C11.4238 11.8185 11.2899 11.8751 11.1768 11.9882C11.0637 12.1013 11.0072 12.2352 11.0072 12.39C11.0072 12.5447 11.0637 12.6787 11.1768 12.7917C11.2899 12.9048 11.4238 12.9614 11.5786 12.9614C11.7333 12.9614 11.8673 12.9048 11.9804 12.7917ZM14.2661 12.7917C14.2661 12.7917 14.2944 12.7635 14.3509 12.7069C14.4074 12.6504 14.4357 12.5447 14.4357 12.39C14.4357 12.2352 14.3792 12.1013 14.2661 11.9882C14.153 11.8751 14.0191 11.8185 13.8643 11.8185C13.7095 11.8185 13.5756 11.8751 13.4625 11.9882C13.3494 12.1013 13.2929 12.2352 13.2929 12.39C13.2929 12.5447 13.3494 12.6787 13.4625 12.7917C13.5756 12.9048 13.7095 12.9614 13.8643 12.9614C14.0191 12.9614 14.153 12.9048 14.2661 12.7917ZM15.5786 10.39V13.2471C15.5786 13.4852 15.4952 13.6876 15.3286 13.8542C15.1619 14.0209 14.9595 14.1042 14.7214 14.1042H1.57858C1.34048 14.1042 1.1381 14.0209 0.971436 13.8542C0.804769 13.6876 0.721436 13.4852 0.721436 13.2471V10.39C0.721436 10.1519 0.804769 9.94949 0.971436 9.78282C1.1381 9.61615 1.34048 9.53282 1.57858 9.53282H5.73036L6.93572 10.7471C7.28096 11.0804 7.68572 11.2471 8.15001 11.2471C8.61429 11.2471 9.01906 11.0804 9.36429 10.7471L10.5786 9.53282H14.7214C14.9595 9.53282 15.1619 9.61615 15.3286 9.78282C15.4952 9.94949 15.5786 10.1519 15.5786 10.39ZM12.6768 5.3096C12.778 5.55365 12.7363 5.76199 12.5518 5.9346L8.55179 9.93461C8.44465 10.0477 8.31072 10.1042 8.15001 10.1042C7.98929 10.1042 7.85536 10.0477 7.74822 9.93461L3.74822 5.9346C3.5637 5.76199 3.52203 5.55365 3.62322 5.3096C3.72441 5.07746 3.90001 4.96139 4.15001 4.96139H6.43572V0.96139C6.43572 0.806628 6.49227 0.6727 6.60536 0.559605C6.71846 0.446509 6.85239 0.389961 7.00715 0.389961H9.29286C9.44763 0.389961 9.58156 0.446509 9.69465 0.559605C9.80775 0.6727 9.86429 0.806628 9.86429 0.96139V4.96139H12.15C12.4 4.96139 12.5756 5.07746 12.6768 5.3096Z" fill="white"/>
</g>
<defs>
<clipPath id="clip0_2_62">
<rect width="14.86" height="16" fill="white" transform="matrix(1 0 0 -1 0.720001 16.39)"/>
</clipPath>
</defs>
</svg>
