<svg width="44" height="45" viewBox="0 0 44 45" fill="none" xmlns="http://www.w3.org/2000/svg">
<path d="M2.12207 20.1722H6.44444C8.89904 20.1722 10.8889 22.162 10.8889 24.6167V26.8389C10.8889 29.2936 12.8787 31.2833 15.3333 31.2833C17.788 31.2833 19.7778 33.2731 19.7778 35.7278V42.2724M13.1111 4.47337V7.95C13.1111 11.0182 15.5984 13.5056 18.6667 13.5056H19.7778C22.2324 13.5056 24.2222 15.4954 24.2222 17.95C24.2222 20.4047 26.212 22.3944 28.6667 22.3944C31.1213 22.3944 33.1111 20.4047 33.1111 17.95C33.1111 15.4954 35.1009 13.5056 37.5556 13.5056H39.9211M28.6667 41.2564V35.7278C28.6667 33.2731 30.6564 31.2833 33.1111 31.2833H39.9211M42 22.3944C42 33.4402 33.0458 42.3944 22 42.3944C10.9543 42.3944 2 33.4402 2 22.3944C2 11.3488 10.9543 2.39444 22 2.39444C33.0458 2.39444 42 11.3488 42 22.3944Z" stroke="#4A5568" stroke-width="4" stroke-linecap="round" stroke-linejoin="round"/>
</svg>
